<svg version="1.2" xmlns="http://www.w3.org/2000/svg" viewBox="0 0 376 95" width="376" height="95">
	<title>logo-svg</title>
	<style>
		tspan { white-space:pre } 
		.s0 { fill: #000000 } 
		.s1 { fill: none } 
		.t2 { font-size: 43px;fill: #ffffff;font-family: "Montserrat" } 
	</style>
	<path id="Layer" class="s0" d="m15 39.2h-8.9l-4.5 7.7 4.5 7.7h8.9l4.7-7.7z"/>
	<path id="Layer" class="s0" d="m25.8 20.7h-8.9l-4.5 7.7 4.5 7.7h8.9l4.4-7.7z"/>
	<path id="Layer" class="s0" d="m36.3 2.4h-8.9l-4.4 7.7 4.4 7.7h8.9l4.5-7.7z"/>
	<path id="Layer" class="s0" d="m57.6 2.4h-9.1l-4.4 7.7 4.4 7.7h9.1l4.5-7.7z"/>
	<path id="Layer" class="s0" d="m46.4 22.5h-6.8l-3.5 5.9 3.5 5.8h6.8l3.5-5.8z"/>
	<path id="Layer" class="s0" d="m67.7 22.5h-7l-3.3 5.9 3.3 5.8h7l3.3-5.8z"/>
	<path id="Layer" class="s0" d="m45.7 62.6h-5.4l-2.6 4.7 2.6 4.7h5.4l2.6-4.7z"/>
	<path id="Layer" class="s0" d="m67 62.6h-5.4l-2.8 4.7 2.8 4.7h5.4l2.6-4.7z"/>
	<path id="Layer" class="s0" d="m55.3 83.7h-4.4l-2.4 3.7 2.4 4h4.4l2.3-4z"/>
	<path id="Layer" class="s0" d="m78.7 2.4h-8.9l-4.4 7.7 4.4 7.7h8.9l4.7-7.7z"/>
	<path id="Layer" class="s0" d="m35.6 40.3h-7.5l-3.5 6.4 3.5 6.3h7.5l3.5-6.3z"/>
	<path id="Layer" class="s0" d="m78 40.3h-7.2l-3.8 6.4 3.8 6.3h7.2l3.8-6.3z"/>
	<path id="Layer" class="s0" d="m56.2 41.3h-6.3l-3 5.4 3 5.4h6.3l3.1-5.4z"/>
	<path id="Layer" class="s0" d="m89.3 20.7h-8.9l-4.5 7.7 4.5 7.7h8.9l4.4-7.7z"/>
	<path id="Layer" class="s0" d="m24.4 61h-7.3l-3.7 6.3 3.7 6.3h7.3l3.7-6.3z"/>
	<path id="Layer" class="s0" d="m30.7 84.2h-4.2l-2.1 3.7 2.1 3.5h4.2l2.1-3.5z"/>
	<path id="Layer" class="s0" d="m100.1 39.2h-8.9l-4.5 7.7 4.5 7.7h8.9l4.4-7.7z"/>
	<path id="Layer" class="s0" d="m89 61h-7.2l-3.8 6.3 3.8 6.3h7.2l3.8-6.3z"/>
	<path id="Layer" class="s0" d="m79.7 81.3h-5.9l-3 5 3 5.1h5.9l2.8-5.1z"/>
	<path id="Layer" class="s1" d="m72.4 35v-6.1h-11.2v6.1h-7.1v-18.7c0-1.6 0.3-3.3 1-4.9 0.7-1.4 1.6-2.9 2.7-4.1 1.2-1.1 2.6-2 4.1-2.7 3.1-1.3 6.8-1.3 9.9 0 3 1.3 5.5 3.8 6.8 6.8 0.6 1.5 1 3.2 1 4.9l-0.1 18.7zm6.2-18.7c0-1.5-0.4-3-1-4.5-1.1-2.8-3.4-5.1-6.2-6.2-2.9-1.3-6.2-1.3-9.1 0-1.5 0.5-2.7 1.4-3.7 2.5-1.1 1-2 2.3-2.5 3.7-0.7 1.4-1 2.9-1 4.5v17.7h5.1v-6.1h13.2v6.1h5.1zm-18.5 6.6v-6.6c0-0.9 0.2-1.9 0.6-2.6 0.7-1.5 1.9-2.8 3.5-3.5 1.6-0.6 3.5-0.6 5.1 0 1.6 0.7 2.9 1.9 3.6 3.5 0.3 0.9 0.5 1.7 0.5 2.6v6.6zm12.3-6.6c0-0.7-0.2-1.4-0.5-2.2-0.5-1.4-1.6-2.4-3-2.9-1.4-0.6-2.9-0.6-4.3 0-1.4 0.5-2.4 1.6-3 2.9-0.3 0.7-0.5 1.5-0.5 2.2v5.6h11.3z"/>
	<text id="UMC Travel" style="transform: matrix(1,0,0,1,109.209,62.155)" >
		<tspan x="0" y="0" class="t2">U</tspan><tspan  y="0" class="t2">M</tspan><tspan  y="0" class="t2">C</tspan><tspan  y="0" class="t2"> </tspan><tspan  y="0" class="t2">T</tspan><tspan  y="0" class="t2">r</tspan><tspan  y="0" class="t2">a</tspan><tspan  y="0" class="t2">v</tspan><tspan  y="0" class="t2">e</tspan><tspan  y="0" class="t2">l</tspan><tspan  y="0" class="t2">
</tspan>
	</text>
</svg>